<?xml version="1.0"?>
<svg version="1.1" id="圖層_1" xmlns="http://www.w3.org/2000/svg" x="0" y="0" viewBox="0 0 100 100" xml:space="preserve"><path d="M23.088 88.319l-1.888-1.09a5.077 5.077 0 0 1-1.859-6.936l38.54-66.753a5.077 5.077 0 0 1 6.936-1.859l1.888 1.09a5.077 5.077 0 0 1 1.859 6.936L30.024 86.46a5.077 5.077 0 0 1-6.936 1.859z" fill="#66503a" stroke="#333" stroke-width="3.5" stroke-miterlimit="10"/><path d="M65.392 55.865L28.154 34.366a6.174 6.174 0 0 1-2.26-8.433l6.687-11.583a6.174 6.174 0 0 1 8.433-2.26l37.238 21.5a6.174 6.174 0 0 1 2.26 8.433l-6.687 11.583a6.174 6.174 0 0 1-8.433 2.259z" fill="#666" stroke="#333" stroke-width="3.5" stroke-miterlimit="10"/><metadata xmlns:d="https://loading.io/stock/"><d:name>hammer</d:name><d:tags>hammer,forge,workshop,nail,hit,hand tool,sledge,strike</d:tags><d:license>by</d:license><d:slug>cf5rab</d:slug></metadata></svg>