<?xml version="1.0"?>
<svg version="1.1" id="圖層_1" xmlns="http://www.w3.org/2000/svg" x="0" y="0" viewBox="0 0 100 100" xml:space="preserve"><path d="M23.088 88.319l-1.888-1.09a5.077 5.077 0 0 1-1.859-6.936l38.54-66.753a5.077 5.077 0 0 1 6.936-1.859l1.888 1.09a5.077 5.077 0 0 1 1.859 6.936L30.024 86.46a5.077 5.077 0 0 1-6.936 1.859z" fill="#66503a" stroke="#333" stroke-width="3.5" stroke-miterlimit="10"/><path d="M65.392 55.865L28.154 34.366a6.174 6.174 0 0 1-2.26-8.433l6.687-11.583a6.174 6.174 0 0 1 8.433-2.26l37.238 21.5a6.174 6.174 0 0 1 2.26 8.433l-6.687 11.583a6.174 6.174 0 0 1-8.433 2.259z" fill="#666" stroke="#333" stroke-width="3.5" stroke-miterlimit="10"/><path d="M22.144 87.774l.944.545a5.077 5.077 0 0 0 6.936-1.859l22.09-38.261 13.278 7.666a6.173 6.173 0 0 0 8.433-2.26l6.687-11.583a6.173 6.173 0 0 0-2.26-8.433l-13.278-7.666 3.59-6.217a5.077 5.077 0 0 0-1.859-6.936l-.944-.545" opacity=".2" stroke="#000" stroke-width="3.5" stroke-miterlimit="10"/><path fill="none" stroke="#fff" stroke-width="3.5" stroke-linecap="round" stroke-miterlimit="10" d="M38.179 18.313l-2.637 4.567"/><path fill="none" stroke="#fff" stroke-width="3.5" stroke-linecap="round" stroke-miterlimit="10" d="M32.545 28.071l-.271.47"/><metadata xmlns:d="https://loading.io/stock/"><d:name>hammer</d:name><d:tags>hammer,forge,workshop,nail,hit,hand tool,sledge,strike</d:tags><d:license>by</d:license><d:slug>mdxn8w</d:slug></metadata></svg>